<svg xmlns="http://www.w3.org/2000/svg" width="32" height="32" viewBox="0 0 32 32">
  <g id="Group_35496" data-name="Group 35496" transform="translate(-38 -736)">
    <g id="Group_27418" data-name="Group 27418" transform="translate(38 736)">
      <g id="Group_27417" data-name="Group 27417">
        <rect id="Rectangle_5674" data-name="Rectangle 5674" width="32" height="32" fill="none"/>
        <path id="Path_169343" data-name="Path 169343" d="M26.057,56.426l-7.68-5.373a6.47,6.47,0,0,0-7.32.173l-6.68,5.213A6.87,6.87,0,0,0,1.99,61.293v9.2a6.174,6.174,0,0,0,6.16,6.173H22.523a6.163,6.163,0,0,0,6.16-6.16v-9.04A6.8,6.8,0,0,0,26.057,56.426Zm-9.72,14.907a1,1,0,0,1-2,0v-4a1,1,0,0,1,2,0Z" transform="translate(0.676 -47.336)" fill="#fff"/>
      </g>
    </g>
  </g>
</svg>
