<svg xmlns="http://www.w3.org/2000/svg" width="32" height="32" viewBox="0 0 32 32">
  <g id="Group_35512" data-name="Group 35512" transform="translate(-91 -577)">
    <rect id="Rectangle_2692" data-name="Rectangle 2692" width="32" height="32" transform="translate(91 577)" fill="none"/>
    <g id="Group_28726" data-name="Group 28726" transform="translate(97.669 579.667)">
      <path id="Path_233636" data-name="Path 233636" d="M13.583,2a6.328,6.328,0,0,0-.16,12.653,1.076,1.076,0,0,1,.293,0h.093A6.329,6.329,0,0,0,13.583,2Z" transform="translate(-4.197 -2)" fill="#fff"/>
      <path id="Path_233637" data-name="Path 233637" d="M21.12,14.615a13.239,13.239,0,0,0-13.533,0A5.263,5.263,0,0,0,4.96,18.922,5.219,5.219,0,0,0,7.573,23.2a12.319,12.319,0,0,0,6.773,1.88A12.319,12.319,0,0,0,21.12,23.2a5.261,5.261,0,0,0,2.613-4.307A5.25,5.25,0,0,0,21.12,14.615Z" transform="translate(-4.96 1.585)" fill="#fff"/>
    </g>
  </g>
</svg>
