<svg xmlns="http://www.w3.org/2000/svg" width="32" height="32" viewBox="0 0 32 32">
  <g id="Group_35516" data-name="Group 35516" transform="translate(-36 -398)">
    <rect id="Rectangle_6128" data-name="Rectangle 6128" width="32" height="32" transform="translate(36 398)" fill="none"/>
    <path id="Path_233594" data-name="Path 233594" d="M26.133,11.44c-2.413,0-3.4-1.707-2.2-3.8A2.529,2.529,0,0,0,23,4.186l-2.307-1.32a2.225,2.225,0,0,0-3.04.8l-.147.253c-1.2,2.093-3.173,2.093-4.387,0l-.147-.253a2.188,2.188,0,0,0-3.013-.8L7.653,4.186A2.544,2.544,0,0,0,6.72,7.653c1.213,2.08.227,3.787-2.187,3.787A2.541,2.541,0,0,0,2,13.973V16.32a2.541,2.541,0,0,0,2.533,2.533c2.413,0,3.4,1.707,2.187,3.8a2.529,2.529,0,0,0,.933,3.453l2.307,1.32a2.225,2.225,0,0,0,3.04-.8l.147-.253c1.2-2.093,3.173-2.093,4.387,0l.147.253a2.225,2.225,0,0,0,3.04.8l2.307-1.32a2.532,2.532,0,0,0,.933-3.453c-1.213-2.093-.227-3.8,2.187-3.8A2.541,2.541,0,0,0,28.68,16.32V13.973A2.561,2.561,0,0,0,26.133,11.44Zm-10.8,8.04a4.333,4.333,0,1,1,4.333-4.333A4.342,4.342,0,0,1,15.333,19.48Z" transform="translate(36.665 399.439)" fill="#fff"/>
  </g>
</svg>
