<svg xmlns="http://www.w3.org/2000/svg" width="24" height="24" viewBox="0 0 24 24">
  <g id="Group_26874" data-name="Group 26874" transform="translate(-91 -577)">
    <rect id="Rectangle_2692" data-name="Rectangle 2692" width="24" height="24" transform="translate(91 577)" fill="none"/>
    <g id="Group_28446" data-name="Group 28446" transform="translate(90.75 576.75)">
      <path id="Path_233469" data-name="Path 233469" d="M22,3.75H2a.75.75,0,0,1,0-1.5H22a.75.75,0,0,1,0,1.5Z"/>
      <path id="Path_233470" data-name="Path 233470" d="M11,9.75H2a.75.75,0,0,1,0-1.5h9a.75.75,0,0,1,0,1.5Z"/>
      <path id="Path_233471" data-name="Path 233471" d="M8,15.75H2a.75.75,0,0,1,0-1.5H8a.75.75,0,0,1,0,1.5Z"/>
      <path id="Path_233472" data-name="Path 233472" d="M6,21.75H2a.75.75,0,0,1,0-1.5H6a.75.75,0,0,1,0,1.5Z"/>
      <path id="Path_233473" data-name="Path 233473" d="M21.86,7.68a2.621,2.621,0,0,0-2.35-.28L15.16,8.58a2.477,2.477,0,0,0-1.89,2.47v6.23a2.888,2.888,0,0,0-1.43-.39,2.93,2.93,0,1,0,2.93,2.93V14.17l6.48-1.77v3.43a2.888,2.888,0,0,0-1.43-.39,2.93,2.93,0,1,0,2.93,2.93V9.87A2.569,2.569,0,0,0,21.86,7.68ZM11.84,21.25a1.43,1.43,0,1,1,1.43-1.43A1.43,1.43,0,0,1,11.84,21.25Zm7.98-1.45a1.43,1.43,0,1,1,1.43-1.43A1.43,1.43,0,0,1,19.82,19.8Z"/>
    </g>
  </g>
</svg>
