<svg xmlns="http://www.w3.org/2000/svg" width="24" height="24" viewBox="0 0 24 24">
  <g id="Group_35455" data-name="Group 35455" transform="translate(-23 -75)">
    <g id="Group_28491" data-name="Group 28491" transform="translate(23 75)">
      <rect id="Rectangle_2678" data-name="Rectangle 2678" width="24" height="24" fill="none"/>
      <g id="Group_28490" data-name="Group 28490" transform="translate(3.75 4.5)">
        <path id="Path_233501" data-name="Path 233501" d="M22.073,19.6H11.1a.992.992,0,1,1,0-1.984h10.97a.992.992,0,0,1,0,1.984Z" transform="translate(-6.564 -3.892)"/>
        <path id="Path_233502" data-name="Path 233502" d="M22.073,13.314H11.1a.992.992,0,0,1,0-1.984h10.97a.992.992,0,0,1,0,1.984Z" transform="translate(-6.564 -4.46)"/>
        <path id="Path_233503" data-name="Path 233503" d="M22.073,7.014H11.1a.992.992,0,0,1,0-1.984h10.97a.992.992,0,0,1,0,1.984Z" transform="translate(-6.564 -5.03)"/>
        <path id="Path_233507" data-name="Path 233507" d="M11.1,7.014h0a.992.992,0,0,1,0-1.984h0a.992.992,0,1,1,0,1.984Z" transform="translate(-10.11 -5.03)"/>
        <path id="Path_233508" data-name="Path 233508" d="M11.1,7.014h0a.992.992,0,0,1,0-1.984h0a.992.992,0,1,1,0,1.984Z" transform="translate(-10.11 1.84)"/>
        <path id="Path_233509" data-name="Path 233509" d="M11.1,7.014h0a.992.992,0,0,1,0-1.984h0a.992.992,0,1,1,0,1.984Z" transform="translate(-10.11 8.71)"/>
      </g>
    </g>
  </g>
</svg>
