<svg id="Group_114545" data-name="Group 114545" xmlns="http://www.w3.org/2000/svg" width="28" height="28" viewBox="0 0 32 32">
  <rect id="Rectangle_8500" data-name="Rectangle 8500" width="28" height="28" fill="none"/>
  <g id="like" transform="translate(4 6.5)">
    <path id="Path_1" data-name="Path 1" d="M1.75,8h2.5A1.752,1.752,0,0,1,6,9.75v11.5A1.752,1.752,0,0,1,4.25,23H1.75A1.752,1.752,0,0,1,0,21.25V9.75A1.752,1.752,0,0,1,1.75,8Z" transform="translate(0 -7.75)" fill="#e16262"/>
    <path id="Path_2" data-name="Path 2" d="M12.781,23.25c-1,0-1.5-.5-1.5-3,0-2.376-2.3-4.288-3.781-5.273V2.589A23.308,23.308,0,0,1,17.281.75h1.6a3.993,3.993,0,0,1,3.94,3.32l1.12,6.5A4,4,0,0,1,20,15.25h-4.72a9.656,9.656,0,0,1,.75,4,3.672,3.672,0,0,1-3.25,4Z" transform="translate(0 -0.75)" fill="#e16262"/>
  </g>
</svg>
